<svg xmlns="http://www.w3.org/2000/svg" xmlns:xlink="http://www.w3.org/1999/xlink" width="256"
  height="256" viewBox="0 0 256 256" fill="none">
  <g opacity="1" transform="translate(0 0)  rotate(0)">
    <rect opacity="1" transform="translate(0 0)  rotate(0)" x="0" y="0" width="256"
      height="256" />
    <g>
      <g id="文本 1" filter="url(#filter_2)">
        <g id="文本 1" filter="url(#filter_1)">
          <g opacity="1" transform="translate(7 68)  rotate(0)">
            <path id="文本 1" style="fill:#00BAAD" opacity="1"
              d="M8.64 93.12L8.64 24L17.28 24L17.28 53.184L40.32 53.184L40.32 24L48.96 24L48.96 93.12L40.32 93.12L40.32 61.056L17.28 61.056L17.28 93.12L8.64 93.12ZM90.4 94.08Q85.504 94.08 81.616 92.64Q77.728 91.2 74.992 88.512Q72.256 85.824 70.768 81.984Q69.28 78.144 69.28 73.44L69.28 60Q69.28 55.2 70.768 51.408Q72.256 47.616 74.992 44.928Q77.728 42.24 81.616 40.8Q85.504 39.36 90.4 39.36Q100.192 39.36 105.856 44.832Q111.52 50.304 111.52 59.904L111.52 73.44Q111.52 83.04 105.904 88.56Q100.288 94.08 90.4 94.08ZM77.92 73.44Q77.92 79.488 81.232 82.944Q84.544 86.4 90.4 86.4Q96.16 86.4 99.52 82.944Q102.88 79.488 102.88 73.44L102.88 60Q102.88 53.952 99.52 50.496Q96.16 47.04 90.4 47.04Q84.64 47.04 81.28 50.496Q77.92 53.952 77.92 60L77.92 73.44ZM152.768 94.08Q147.872 94.08 143.984 92.64Q140.096 91.2 137.36 88.512Q134.624 85.824 133.136 81.984Q131.648 78.144 131.648 73.44L131.648 60Q131.648 55.296 133.136 51.456Q134.624 47.616 137.36 44.928Q140.096 42.24 143.984 40.8Q147.872 39.36 152.768 39.36Q161.504 39.36 167.12 44.112Q172.736 48.864 173.888 57.12L165.248 57.12Q164.576 52.512 161.168 49.776Q157.76 47.04 152.768 47.04Q147.008 47.04 143.648 50.496Q140.288 53.952 140.288 60L140.288 73.44Q140.288 79.488 143.6 82.944Q146.912 86.4 152.768 86.4Q157.76 86.4 161.168 83.664Q164.576 80.928 165.248 76.32L173.888 76.32Q172.64 84.672 167.024 89.376Q161.408 94.08 152.768 94.08ZM193.92 93.12L193.92 85.248L213.12 85.248L213.12 48.192L196.32 48.192L196.32 40.32L221.76 40.32L221.76 85.248L237.6 85.248L237.6 93.12L193.92 93.12ZM215.04 19.68L216.96 19.68Q219.744 19.68 221.472 21.312Q223.2 22.944 223.2 25.536Q223.2 28.128 221.472 29.664Q219.744 31.2 216.96 31.2L215.04 31.2Q212.256 31.2 210.528 29.712Q208.8 28.224 208.8 25.536Q208.8 22.944 210.528 21.312Q212.256 19.68 215.04 19.68Z"></path>
          </g>
        </g>
      </g>
    </g>
  </g>
  <defs>
    <rect id="path_0" x="0" y="0" width="256" height="256" />
    <filter id="filter_1" x="3" y="62" width="251" height="132" filterUnits="userSpaceOnUse"
      color-interpolation-filters="sRGB">
      <feFlood flood-opacity="0" result="feFloodId" />
      <feColorMatrix in="SourceAlpha" type="matrix"
        values="0 0 0 0 0 0 0 0 0 0 0 0 0 0 0 0 0 0 127 0" result="hardAlpha" />

      <feOffset dx="0" dy="2" />
      <feComposite in2="hardAlpha" operator="out" />
      <feGaussianBlur stdDeviation="2" />
      <feColorMatrix type="matrix" values="0 0 0 0 0 0 0 0 0 0 0 0 0 0 0 0 0 0 0.25 0" />
      <feBlend mode="normal" in2="filter_feFlood" result="filter_feFlood_1" />
      <feBlend mode="normal" in="SourceGraphic" in2="filter_1" result="shape" />
    </filter>
    <filter id="filter_2" x="3" y="64" width="251" height="128" filterUnits="userSpaceOnUse"
      color-interpolation-filters="sRGB">
      <feFlood flood-opacity="0" result="BackgroundImageFix" />
      <feGaussianBlur in="BackgroundImage" stdDeviation="2" />
      <feComposite in2="SourceAlpha" operator="in" result="effect1_backgroundBlur" />
      <feBlend mode="normal" in="SourceGraphic" in2="effect1_backgroundBlur" result="shape" />
    </filter>
  </defs>
</svg>
